# xmcd CD database file
#
# Track frame offsets:
#	150
#	56335
#	101560
#	158162
#	227322
#	271705
#
# Disc length: 4396 seconds
#
# Revision: 0
# Processed by: cddbd v1.5.2PL0 Copyright (c) Steve Scherf et al.
# Submitted via: CDex 1.70beta2
#
DISCID=3a112a06
DTITLE=Ari Hoenig Punk Bop - Live At Smalls
DYEAR=2010
DGENRE=Jazz
TTITLE0=Birdless
TTITLE1=Remembering
TTITLE2=Rapscallion Cattle
TTITLE3=Green Spleen
TTITLE4=Dark News
TTITLE5=Ska
EXTD=YEAR: 2010
EXTT0=
EXTT1=
EXTT2=
EXTT3=
EXTT4=
EXTT5=
PLAYORDER=
